<?xml version="1.0" encoding="UTF-8" standalone="no"?>
<svg width="200" height="200" viewBox="0 0 200 200" xmlns="http://www.w3.org/2000/svg">
  <!-- Background Circle -->
  <circle cx="100" cy="100" r="90" fill="#f8f9fa" stroke="#0d6efd" stroke-width="4"/>
  
  <!-- Calendar Icon Base -->
  <rect x="50" y="60" width="100" height="90" rx="8" ry="8" fill="#0d6efd"/>
  <rect x="55" y="65" width="90" height="80" rx="4" ry="4" fill="white"/>
  
  <!-- Calendar Top Bar -->
  <rect x="50" y="60" width="100" height="20" rx="8" ry="8" fill="#0d6efd"/>
  
  <!-- Calendar Hangers -->
  <rect x="70" y="50" width="8" height="15" rx="2" ry="2" fill="#0d6efd"/>
  <rect x="122" y="50" width="8" height="15" rx="2" ry="2" fill="#0d6efd"/>
  
  <!-- Calendar Grid Lines -->
  <line x1="70" y1="95" x2="130" y2="95" stroke="#e6e6e6" stroke-width="2"/>
  <line x1="70" y1="115" x2="130" y2="115" stroke="#e6e6e6" stroke-width="2"/>
  <line x1="90" y1="85" x2="90" y2="135" stroke="#e6e6e6" stroke-width="2"/>
  <line x1="110" y1="85" x2="110" y2="135" stroke="#e6e6e6" stroke-width="2"/>
  
  <!-- Checkmark -->
  <path d="M75 105 L85 115 L115 85" stroke="#0d6efd" stroke-width="6" stroke-linecap="round" stroke-linejoin="round" fill="none"/>
  
  <!-- Recurring Symbol -->
  <path d="M140 120 A15 15 0 1 1 125 105" stroke="#0d6efd" stroke-width="4" stroke-linecap="round" fill="none"/>
  <path d="M125 105 L135 105 L135 95" stroke="#0d6efd" stroke-width="4" stroke-linecap="round" stroke-linejoin="round" fill="none"/>
</svg>
